<svg xmlns="http://www.w3.org/2000/svg" width="38.504" height="27.162" viewBox="0 0 38.504 27.162">
  <g id="noun-electric-car-3385247" transform="translate(-1.9 -15.822)">
    <g id="Group_7997" data-name="Group 7997" transform="translate(2 15.922)">
      <path id="Path_13707" data-name="Path 13707" d="M32.643,45.406a3.192,3.192,0,0,0,3.192-3.192V40.938h1.277a.638.638,0,0,0,.638-.638V32.638A.638.638,0,0,0,37.112,32h-3.83a.638.638,0,0,0-.638.638V40.3a.638.638,0,0,0,.638.638h1.277v1.277a1.915,1.915,0,0,1-1.915,1.915H31.366V41.576a.639.639,0,0,0,0-.153l-.638-2.554a.638.638,0,0,0-.249-.364L26.01,35.313a.6.6,0,0,0-.389-.121H17.96a.7.7,0,0,0-.319.083l-4.36,2.471L4.464,39.022a.638.638,0,0,0-.46.306L2.089,42.521v.051a.23.23,0,0,0,0,.057A.638.638,0,0,0,2,42.853v3.192a.638.638,0,0,0,.638.638H5.46a.638.638,0,1,0,0-1.277H3.277V43.491H4.554a2.554,2.554,0,0,0,2.554-2.554v-1l6.473-.919a.7.7,0,0,0,.23-.077l4.322-2.477h6.735a1.915,1.915,0,0,1-1.8,1.277H17.96a.638.638,0,0,0,0,1.277h5.107a3.192,3.192,0,0,0,2.988-2.1l3.473,2.483.562,2.247v3.754H28.755a4.239,4.239,0,0,0,.057-.638,3.83,3.83,0,1,0-.517,1.915h2.432a.638.638,0,0,0,.638-.638v-.638ZM33.92,35.83h2.554v1.277H33.92Zm0-2.554h2.554v1.277H33.92Zm0,5.107h2.554v1.277H33.92ZM5.83,40.938a1.277,1.277,0,0,1-1.277,1.277H3.768l1.175-1.966.887-.128Zm19.152,6.384a2.554,2.554,0,1,1,2.554-2.554A2.554,2.554,0,0,1,24.982,47.322Z" transform="translate(-2 -21.736)" fill="#252525" stroke="#252525" stroke-width="0.2"/>
      <path id="Path_13708" data-name="Path 13708" d="M47.277,35.554V33.638a.638.638,0,1,0-1.277,0v1.915a.638.638,0,1,0,1.277,0Z" transform="translate(-17.911 -22.097)" fill="#252525" stroke="#252525" stroke-width="0.2"/>
      <path id="Path_13709" data-name="Path 13709" d="M54.13,26.554H52.214V24.638A.638.638,0,0,0,51.576,24H45.192a.638.638,0,0,0-.638.638v1.915H42.638a.638.638,0,0,0-.638.638V32.21a.638.638,0,0,0,1.277,0V27.83H53.491v16.6H47.107a.638.638,0,0,0,0,1.277H54.13a.638.638,0,0,0,.638-.638V27.192A.638.638,0,0,0,54.13,26.554Zm-8.3,0V25.277h5.107v1.277Z" transform="translate(-16.464 -18.843)" fill="#252525" stroke="#252525" stroke-width="0.2"/>
      <path id="Path_13710" data-name="Path 13710" d="M22.4,50.465H17.6a4.239,4.239,0,0,0,.057-.638,3.83,3.83,0,1,0-.517,1.915H22.4a.638.638,0,1,0,0-1.277ZM13.83,52.38a2.554,2.554,0,1,1,2.554-2.554A2.554,2.554,0,0,1,13.83,52.38Z" transform="translate(-4.892 -26.794)" fill="#252525" stroke="#252525" stroke-width="0.2"/>
      <path id="Path_13711" data-name="Path 13711" d="M24.915,46.277a.638.638,0,1,0,0-1.277H23.638a.638.638,0,1,0,0,1.277Z" transform="translate(-9.594 -26.437)" fill="#252525" stroke="#252525" stroke-width="0.2"/>
      <path id="Path_13712" data-name="Path 13712" d="M37.915,51H36.638a.638.638,0,1,0,0,1.277h1.277a.638.638,0,0,0,0-1.277Z" transform="translate(-14.294 -28.606)" fill="#252525" stroke="#252525" stroke-width="0.2"/>
      <path id="Path_13713" data-name="Path 13713" d="M15.915,51H14.638a.638.638,0,0,0,0,1.277h1.277a.638.638,0,0,0,0-1.277Z" transform="translate(-6.339 -28.606)" fill="#252525" stroke="#252525" stroke-width="0.2"/>
      <path id="Path_13714" data-name="Path 13714" d="M19.638,22.994h2.911l-1.6,4.245a.642.642,0,0,0,1.073.658l7.022-7.661a.64.64,0,0,0-.472-1.073H25.237l1.334-2.228a.638.638,0,1,0-1.1-.638l-1.915,3.192a.638.638,0,0,0,.549.951h3.02L23.3,24.6l.76-2.024a.642.642,0,0,0-.587-.862H20.526l1.487-4.469h1.456a.638.638,0,1,0,0-1.277H21.553a.638.638,0,0,0-.606.434l-1.915,5.746a.644.644,0,0,0,.606.843Z" transform="translate(-8.147 -15.922)" fill="#252525" stroke="#252525" stroke-width="0.2"/>
    </g>
  </g>
</svg>
