<svg xmlns="http://www.w3.org/2000/svg" width="21.954" height="23.522" viewBox="0 0 21.954 23.522">
  <g id="Group_7890" data-name="Group 7890" transform="translate(-891.023 -212.239)">
    <g id="noun-petrol-3501728" transform="translate(776.229 184.234)">
      <path id="Path_13695" data-name="Path 13695" d="M117.931,38.459h9.932a.524.524,0,0,0,.523-.523v-6.8a.524.524,0,0,0-.523-.523h-9.932a.524.524,0,0,0-.523.523v6.8A.524.524,0,0,0,117.931,38.459Zm.523-1.045V34.278h8.886v3.136Zm8.886-5.75v1.568h-8.886V31.664ZM123.315,42.9a.575.575,0,0,0-.418-.235.471.471,0,0,0-.418.235L120.91,45.15a2.42,2.42,0,0,0,.5,3.293,2.385,2.385,0,0,0,2.98,0,2.416,2.416,0,0,0,.5-3.293Zm.418,4.7a1.374,1.374,0,0,1-1.7,0,1.39,1.39,0,0,1-.288-1.882l1.124-1.62,1.124,1.62A1.36,1.36,0,0,1,123.733,47.607ZM135.18,31.664V30.54a.516.516,0,0,1,.157-.366l1.254-1.254a.517.517,0,0,0-.732-.732l-1.254,1.254a1.565,1.565,0,0,0-.47,1.1v1.124a1.573,1.573,0,0,0-1.568,1.568v3.136a1.573,1.573,0,0,0,1.568,1.568v7.841a2.1,2.1,0,0,1-2.091,2.091H131V30.1a2.1,2.1,0,0,0-2.091-2.091H116.885a2.1,2.1,0,0,0-2.091,2.091v19.34a2.1,2.1,0,0,0,2.091,2.091h12.022A2.1,2.1,0,0,0,131,49.437v-.523h1.045a3.145,3.145,0,0,0,3.136-3.136V37.937a1.573,1.573,0,0,0,1.568-1.568V33.232a1.573,1.573,0,0,0-1.568-1.568Zm-18.295-2.614h12.022a1.048,1.048,0,0,1,1.045,1.045v9.932H115.84V30.1a1.049,1.049,0,0,1,1.046-1.046Zm13.068,20.386a1.048,1.048,0,0,1-1.045,1.045H116.885a1.048,1.048,0,0,1-1.045-1.045V41.073h14.113Zm5.75-13.068a.524.524,0,0,1-.523.523h-1.045a.524.524,0,0,1-.523-.523V33.232a.524.524,0,0,1,.523-.523h1.045a.524.524,0,0,1,.523.523Z" fill="#191970"/>
    </g>
  </g>
</svg>
