<svg xmlns="http://www.w3.org/2000/svg" width="18.2" height="25.321" viewBox="0 0 18.2 25.321">
  <g id="noun-diesel-2509217" transform="translate(-148.746 0)">
    <path id="Path_13691" data-name="Path 13691" d="M166.03,2.726a.779.779,0,0,0-1.087-.22l-.588.4c-.013.009-.023.02-.036.03l-.15-.218h0a.782.782,0,0,0-.644-.34H158.2V.791A.788.788,0,0,0,157.417,0h-4.948a.782.782,0,0,0-.638.331l-2.939,4.154h0a.8.8,0,0,0-.146.46V23.739a1.577,1.577,0,0,0,1.568,1.583h14.5a1.577,1.577,0,0,0,1.568-1.583V6.182a.8.8,0,0,0-.14-.451l-.226-.33.581-.391h0a.8.8,0,0,0,.217-1.1ZM152.469.791h4.948v.791h-4.36a.391.391,0,0,0-.314.158L150.51,4.748h-.84ZM165.6,23.739a.788.788,0,0,1-.784.791h-14.5a.788.788,0,0,1-.784-.791V5.539h7.055V7.567a.394.394,0,0,0,.392.4H165.6Zm0-16.568h-8.23V5.143a.394.394,0,0,0-.392-.4h-5.487l1.764-2.374h4.164v.791h6.108l1.767,2.572h-5.761a.4.4,0,0,0,0,.791H165.6Zm-.025-2.423-.784-1.187.588-.4.784,1.187Z" fill="#252525"/>
    <path id="Path_13692" data-name="Path 13692" d="M215.522,367.5h-.462a4.266,4.266,0,0,1,.075.791h.387a.789.789,0,0,1,.784.791v3.956a.788.788,0,0,1-.784.791h-9.406a.788.788,0,0,1-.784-.791v-3.956a.788.788,0,0,1,.784-.791h.387a4.25,4.25,0,0,1,.075-.791h-.462a1.577,1.577,0,0,0-1.568,1.583v3.956a1.577,1.577,0,0,0,1.568,1.583h9.406a1.577,1.577,0,0,0,1.568-1.583v-3.957a1.577,1.577,0,0,0-1.568-1.583Z" transform="translate(-53.279 -350.883)" fill="#252525"/>
    <path id="Path_13693" data-name="Path 13693" d="M204.55,194.083v3.956a1.577,1.577,0,0,0,1.568,1.583h.7a4.127,4.127,0,0,1,.279-.564l.137-.227h-1.115a.788.788,0,0,1-.784-.791v-3.957a.788.788,0,0,1,.784-.791h9.406a.789.789,0,0,1,.784.791v3.957a.789.789,0,0,1-.784.791h-1.115l.137.227h0a4.149,4.149,0,0,1,.279.564h.7a1.577,1.577,0,0,0,1.568-1.583v-3.956a1.577,1.577,0,0,0-1.568-1.583h-9.406a1.577,1.577,0,0,0-1.568,1.583Z" transform="translate(-53.281 -183.796)" fill="#252525"/>
    <path id="Path_13694" data-name="Path 13694" d="M268.442,244.487a3.338,3.338,0,0,0,2.319-.935l.177-.17a3.421,3.421,0,0,0,.559-4.222l-3.055-5.088-3.054,5.088a3.42,3.42,0,0,0,.559,4.222l.177.17a3.338,3.338,0,0,0,2.318.935Zm-2.384-4.917,2.384-3.972,2.384,3.972a2.639,2.639,0,0,1-.429,3.238l-.177.17a2.563,2.563,0,0,1-3.557,0l-.177-.17a2.64,2.64,0,0,1-.429-3.238Z" transform="translate(-110.902 -223.487)" fill="#252525"/>
  </g>
</svg>
