<svg xmlns="http://www.w3.org/2000/svg" width="24.844" height="23.523" viewBox="0 0 24.844 23.523">
  <g id="Group_7887" data-name="Group 7887" transform="translate(-772.578 -212.239)">
    <g id="noun-hybrid-car-4930891_1_" data-name="noun-hybrid-car-4930891 (1)" transform="translate(694.778 189.987)">
      <path id="Path_13674" data-name="Path 13674" d="M221.02,235.336h-7.432a2.736,2.736,0,0,1-1.1-.231l-1.283-.563a.388.388,0,0,1,.312-.71l1.283.563a1.976,1.976,0,0,0,.794.167h7.433a1.975,1.975,0,0,0,.794-.167l1.283-.563a.388.388,0,0,1,.312.71l-1.283.563a2.766,2.766,0,0,1-1.109.231Z" transform="translate(-127.092 -201.893)" fill="#252525"/>
      <path id="Path_13675" data-name="Path 13675" d="M201.163,176.046H188.635a1.144,1.144,0,0,1-1.144-1.144V172.46a1.583,1.583,0,0,1,.314-.941l2.4-3.207a2.766,2.766,0,0,1,2.2-1.1h4.98a2.764,2.764,0,0,1,2.2,1.1l2.4,3.208a1.578,1.578,0,0,1,.314.941V174.9a1.144,1.144,0,0,1-1.142,1.142Zm-12.737-4.061a.8.8,0,0,0-.158.476V174.9a.368.368,0,0,0,.367.367h12.528a.368.368,0,0,0,.367-.367V172.46a.8.8,0,0,0-.158-.476l-2.4-3.207a1.985,1.985,0,0,0-1.58-.791h-4.98a1.985,1.985,0,0,0-1.58.791Z" transform="translate(-104.686 -138.343)" fill="#252525"/>
      <path id="Path_13676" data-name="Path 13676" d="M291.525,285.31h-3.958a.74.74,0,0,1-.708-.534l-.165-.574a.736.736,0,0,1,.708-.94h4.286a.738.738,0,0,1,.708.941l-.165.574a.739.739,0,0,1-.707.532Zm-3.929-.777h3.9l.142-.5h-4.182Z" transform="translate(-199.334 -249.1)" fill="#252525"/>
      <path id="Path_13677" data-name="Path 13677" d="M430.086,287.18a.4.4,0,0,1-.044,0l-.911-.045a.881.881,0,0,1,0-1.76l.911-.045a.879.879,0,0,1,.924.88v.091a.893.893,0,0,1-.273.639A.876.876,0,0,1,430.086,287.18Zm0-1.076h-.006l-.911.045a.1.1,0,0,0-.1.1.1.1,0,0,0,.1.1l.911.045a.1.1,0,0,0,.078-.029.1.1,0,0,0,.032-.076v-.091a.1.1,0,0,0-.032-.076A.116.116,0,0,0,430.086,286.1Z" transform="translate(-334.502 -251.07)" fill="#252525"/>
      <path id="Path_13678" data-name="Path 13678" d="M213.645,287.174a.88.88,0,0,1-.881-.881V286.2a.893.893,0,0,1,.273-.639.882.882,0,0,1,.65-.241l.911.045a.881.881,0,0,1,0,1.76l-.911.045a.36.36,0,0,1-.042,0Zm0-1.076a.1.1,0,0,0-.1.105v.091a.1.1,0,0,0,.032.076.1.1,0,0,0,.078.029l.911-.045a.1.1,0,0,0,0-.207l-.911-.045a.009.009,0,0,0-.007,0Z" transform="translate(-128.805 -251.064)" fill="#252525"/>
      <path id="Path_13679" data-name="Path 13679" d="M212.193,346.064a1.307,1.307,0,0,1-1.305-1.305v-.54a.387.387,0,0,1,.388-.388h1.834a.387.387,0,0,1,.388.388v.54a1.309,1.309,0,0,1-1.305,1.305Zm-.529-1.457v.152a.529.529,0,1,0,1.058,0v-.152Z" transform="translate(-127.015 -306.904)" fill="#252525"/>
      <path id="Path_13680" data-name="Path 13680" d="M432.863,346.064a1.307,1.307,0,0,1-1.305-1.305v-.54a.387.387,0,0,1,.388-.388h1.834a.387.387,0,0,1,.388.388v.54A1.308,1.308,0,0,1,432.863,346.064Zm-.529-1.457v.152a.529.529,0,1,0,1.058,0v-.152Z" transform="translate(-337.615 -306.904)" fill="#252525"/>
      <path id="Path_13681" data-name="Path 13681" d="M165.987,223.9h-1.465a.672.672,0,0,1-.671-.671v-.5a.672.672,0,0,1,.671-.671h1.008a.673.673,0,0,1,.6.382l.343.72a.387.387,0,0,1-.126.484.38.38,0,0,1-.364.262Zm-1.359-.776h.977l-.141-.294h-.836Z" transform="translate(-82.124 -190.684)" fill="#252525"/>
      <path id="Path_13682" data-name="Path 13682" d="M479.289,223.9h-1.464a.7.7,0,0,1-.493-.746l.343-.72a.674.674,0,0,1,.6-.382h1.008a.672.672,0,0,1,.671.671v.5a.669.669,0,0,1-.67.671Zm-1.082-.776h.977v-.294h-.836Z" transform="translate(-381.264 -190.684)" fill="#252525"/>
      <path id="Path_13683" data-name="Path 13683" d="M103.911,199.333a11.765,11.765,0,0,1-11-15.929.389.389,0,1,1,.726.277,10.83,10.83,0,0,0-.713,3.893,10.992,10.992,0,0,0,14.879,10.274.389.389,0,1,1,.277.726,11.737,11.737,0,0,1-4.171.76Z" transform="translate(-13.699 -153.559)" fill="#252525"/>
      <path id="Path_13684" data-name="Path 13684" d="M267.948,38.436a.375.375,0,0,1-.137-.026.389.389,0,0,1-.225-.5,10.992,10.992,0,0,0-9.858-14.87c-.139,0-.278-.008-.416-.008a10.953,10.953,0,0,0-3.895.71.389.389,0,0,1-.277-.726,11.726,11.726,0,0,1,4.171-.762c.147,0,.3,0,.445.008a11.766,11.766,0,0,1,10.552,15.923.381.381,0,0,1-.36.253Z" transform="translate(-167.101)" fill="#252525"/>
      <path id="Path_13685" data-name="Path 13685" d="M558.452,336.042a.366.366,0,0,1-.149-.031.387.387,0,0,1-.228-.27l-.455-1.965a.388.388,0,1,1,.757-.175l.333,1.439,1.257-.776a.388.388,0,0,1,.407.66l-1.718,1.059a.391.391,0,0,1-.205.058Z" transform="translate(-457.915 -296.854)" fill="#252525"/>
      <path id="Path_13686" data-name="Path 13686" d="M80.355,168.3a.389.389,0,0,1-.378-.3l-.325-1.439-1.262.77a.388.388,0,1,1-.4-.663l1.722-1.051a.391.391,0,0,1,.354-.026.386.386,0,0,1,.228.272l.446,1.968a.389.389,0,0,1-.293.464.553.553,0,0,1-.089.008Z" transform="translate(0 -136.762)" fill="#252525"/>
      <path id="Path_13687" data-name="Path 13687" d="M123.072,39.795a2.814,2.814,0,1,1,2.814-2.814A2.817,2.817,0,0,1,123.072,39.795Zm0-4.852a2.038,2.038,0,1,0,2.038,2.038A2.04,2.04,0,0,0,123.072,34.942Z" transform="translate(-40.521 -11.37)" fill="#252525"/>
      <path id="Path_13688" data-name="Path 13688" d="M159.5,68.368A1.073,1.073,0,0,1,158.43,67.3a2.778,2.778,0,0,1,.793-1.566.387.387,0,0,1,.56,0,2.778,2.778,0,0,1,.793,1.566,1.073,1.073,0,0,1-1.072,1.072Zm0-1.752a1.421,1.421,0,0,0-.3.681.3.3,0,0,0,.592,0A1.409,1.409,0,0,0,159.5,66.616Z" transform="translate(-76.951 -41.379)" fill="#252525"/>
      <path id="Path_13689" data-name="Path 13689" d="M462.682,404.535a2.814,2.814,0,1,1,2.814-2.814A2.817,2.817,0,0,1,462.682,404.535Zm0-4.852a2.038,2.038,0,1,0,2.038,2.038A2.04,2.04,0,0,0,462.682,399.682Z" transform="translate(-364.633 -359.466)" fill="#252525"/>
      <path id="Path_13690" data-name="Path 13690" d="M503,429.41a.389.389,0,0,1-.311-.623l.4-.535h-.178a.388.388,0,0,1-.323-.6l.793-1.2a.389.389,0,0,1,.648.429l-.393.594h.236a.389.389,0,0,1,.311.623l-.875,1.158a.4.4,0,0,1-.312.154Z" transform="translate(-405.347 -385.59)" fill="#252525"/>
    </g>
  </g>
</svg>
