<svg xmlns="http://www.w3.org/2000/svg" width="25.1" height="27.784" viewBox="0 0 25.1 27.784">
  <g id="Group_8001" data-name="Group 8001" transform="translate(-858.524 -207.178)">
    <g id="noun-luxury-car-2001777" transform="translate(859.964 218.51)">
      <path id="Path_13704" data-name="Path 13704" d="M26.625,15.677a2.733,2.733,0,0,0,1.191-.78l.094-.094a.652.652,0,0,0,.205-.738c-.167-.413-.761-.623-1.765-.623a1.559,1.559,0,0,0-1.338.747C24.182,12.18,22.725,9.4,21.033,9.4h-9.2c-1.693,0-3.15,2.779-3.981,4.788a1.56,1.56,0,0,0-1.338-.747c-1,0-1.6.209-1.765.623a.65.65,0,0,0,.2.738l.094.094a2.74,2.74,0,0,0,1.191.78,2.246,2.246,0,0,0-1.4,1.9V22.37c0,.3.343.554.911.777v1.278a1.23,1.23,0,0,0,1.228,1.228h1.76a1.23,1.23,0,0,0,1.228-1.228v-.441c2.5.287,5.238.4,6.469.4s3.965-.112,6.469-.4v.441a1.23,1.23,0,0,0,1.228,1.228h1.76a1.23,1.23,0,0,0,1.228-1.228V23.147c.567-.222.911-.479.911-.777V17.579A2.246,2.246,0,0,0,26.625,15.677Zm.636,1.9v1.063a6.988,6.988,0,0,1-2.568.744l-.132.014c.113-.136.263-.3.378-.421.159-.172.327-.352.477-.53a4.2,4.2,0,0,1,1.832-.99A.988.988,0,0,1,27.261,17.579ZM26.35,14.21a2.95,2.95,0,0,1,.951.118l-.028.028a1.746,1.746,0,0,1-1.326.649,2.383,2.383,0,0,1-.472-.051A.97.97,0,0,1,26.35,14.21ZM11.832,10.168h9.2c1.215,0,2.62,2.578,3.538,4.984H8.293C9.212,12.747,10.616,10.168,11.832,10.168ZM5.562,14.327a2.982,2.982,0,0,1,.951-.117.972.972,0,0,1,.876.744,2.332,2.332,0,0,1-.472.051,1.746,1.746,0,0,1-1.326-.649Zm.04,3.252a.876.876,0,0,1,.014-.12,4.2,4.2,0,0,1,1.832.991c.15.178.317.359.477.53.115.124.265.284.378.421-.039,0-.083-.008-.132-.014A6.988,6.988,0,0,1,5.6,18.641V17.579ZM9.2,24.425a.463.463,0,0,1-.462.462H6.975a.463.463,0,0,1-.462-.462V23.392a21.728,21.728,0,0,0,2.683.5Zm17.154,0a.463.463,0,0,1-.462.462h-1.76a.463.463,0,0,1-.462-.462v-.534a22.019,22.019,0,0,0,2.683-.5v1.032Zm-9.919-.809c-5.017,0-10.172-.816-10.83-1.334V19.508a8.245,8.245,0,0,0,2.479.64,3.171,3.171,0,0,0,.37.025.737.737,0,0,0,.725-.33c.212-.418-.166-.824-.69-1.387-.15-.161-.308-.33-.449-.5a4.655,4.655,0,0,0-2.042-1.183,4.422,4.422,0,0,1,1.79-.856H25.078a4.433,4.433,0,0,1,1.79.856,4.659,4.659,0,0,0-2.042,1.183c-.14.169-.3.337-.449.5-.524.562-.9.969-.69,1.387a.737.737,0,0,0,.725.33,3.347,3.347,0,0,0,.37-.025,8.251,8.251,0,0,0,2.479-.64v2.775C26.6,22.8,21.449,23.616,16.432,23.616Z" transform="translate(-4.706 -9.401)" fill="#252525" stroke="#252525" stroke-width="0.4"/>
      <path id="Path_13705" data-name="Path 13705" d="M22.714,20.6h-8.72a.927.927,0,0,0-1.049,1.049v1.3a1.272,1.272,0,0,0,1.061,1.138,26.309,26.309,0,0,0,4.348.652,26.215,26.215,0,0,0,4.348-.652,1.274,1.274,0,0,0,1.061-1.138v-1.3A.927.927,0,0,0,22.714,20.6Zm-1.765.767v2.292c-.422.074-.837.139-1.219.19V21.371Zm-3.971,0v2.482c-.383-.051-.8-.117-1.219-.19V21.371Zm-3.266,1.586v-1.3a.5.5,0,0,1,.039-.255.538.538,0,0,1,.243-.028h1v2.15c-.281-.056-.557-.113-.813-.173C13.874,23.277,13.712,23.075,13.712,22.957Zm4.033.984V21.37h1.219v2.571c-.241.022-.455.038-.61.038S17.985,23.964,17.745,23.941ZM23,22.957c0,.118-.163.32-.467.391-.255.058-.532.116-.813.173v-2.15h1a.573.573,0,0,1,.242.026s.041.052.041.256Z" transform="translate(-6.628 -12.015)" fill="#252525" stroke="#252525" stroke-width="0.4"/>
    </g>
    <g id="noun-plugin-hybrid-electric-vehicle-4308225" transform="translate(858.674 207.329)">
      <path id="Path_13715" data-name="Path 13715" d="M131.976,16.812a7.1,7.1,0,0,1,4.888,1.935l.541-.581a7.942,7.942,0,0,0-11.221.357,7.84,7.84,0,0,0-.685.834l.645.462A7.18,7.18,0,0,1,131.976,16.812Z" transform="translate(-120.071 -16.019)" fill="#252525" stroke="#252525" stroke-width="0.3"/>
      <path id="Path_13716" data-name="Path 13716" d="M96,176a6.566,6.566,0,0,0,2.186,5.345l.536-.586A5.781,5.781,0,0,1,96.794,176Z" transform="translate(-92.035 -168.061)" fill="#252525" stroke="#252525" stroke-width="0.3"/>
      <path id="Path_13717" data-name="Path 13717" d="M379.27,194.529a7.888,7.888,0,0,0,1.146-3.345l-.789-.084a7.055,7.055,0,0,1-1.027,3.007Z" transform="translate(-360.61 -182.411)" fill="#252525" stroke="#252525" stroke-width="0.3"/>
      <path id="Path_13720" data-name="Path 13720" d="M17.285,131.1a1.2,1.2,0,0,0,1.191-1.191v-.159a1.2,1.2,0,0,0-.2-.66l-.66-.993a.394.394,0,0,0-.551-.109.382.382,0,0,0-.109.109l-.66.993a1.2,1.2,0,0,0-.2.66v.159A1.187,1.187,0,0,0,17.285,131.1Zm-.4-1.35a.416.416,0,0,1,.065-.218l.333-.5.333.5a.387.387,0,0,1,.065.218v.159a.4.4,0,0,1-.794,0Z" transform="translate(-16.099 -122.368)" fill="#252525" stroke="#252525" stroke-width="0.3"/>
      <path id="Path_13721" data-name="Path 13721" d="M27.938,80.889H29.6l-.511.511a1.519,1.519,0,0,0,2.149,2.149l.511-.511.447.447a1.19,1.19,0,0,1,.347.844v4.395l.794-.291v-4.1a1.987,1.987,0,0,0-.581-1.4l-2.71-2.71a.393.393,0,0,0-.283-.114H27.774a.4.4,0,0,0-.283.114L26.3,81.405l.561.561Zm2.218.561,1.027,1.027-.511.511a.726.726,0,0,1-1.027-1.027Z" transform="translate(-25.794 -76.92)" fill="#252525" stroke="#252525" stroke-width="0.3"/>
      <path id="Path_13722" data-name="Path 13722" d="M320,81.191v2.382a1.2,1.2,0,0,0,1.191,1.191h4.764a1.2,1.2,0,0,0,1.191-1.191h.4a1.191,1.191,0,1,0,0-2.382h-.4A1.2,1.2,0,0,0,325.955,80h-4.764A1.2,1.2,0,0,0,320,81.191Zm7.146.794h.4a.4.4,0,1,1,0,.794h-.4Zm-.794-.794v2.382a.4.4,0,0,1-.4.4h-4.764a.4.4,0,0,1-.4-.4V81.191a.4.4,0,0,1,.4-.4h4.764A.4.4,0,0,1,326.352,81.191Z" transform="translate(-304.918 -76.825)" fill="#252525" stroke="#252525" stroke-width="0.3"/>
      <rect id="Rectangle_2020" data-name="Rectangle 2020" width="0.794" height="1.588" transform="translate(16.67 4.763)" fill="#252525" stroke="#252525" stroke-width="0.3"/>
      <rect id="Rectangle_2021" data-name="Rectangle 2021" width="0.794" height="1.588" transform="translate(18.258 4.763)" fill="#252525" stroke="#252525" stroke-width="0.3"/>
      <rect id="Rectangle_2022" data-name="Rectangle 2022" width="0.794" height="1.588" transform="translate(19.846 4.763)" fill="#252525" stroke="#252525" stroke-width="0.3"/>
      <path id="Path_13723" data-name="Path 13723" d="M189.161,88.337V84.764a.4.4,0,0,0,.4-.4v-.045l-.238-2.159a1.984,1.984,0,0,0-1.975-1.767h-.963a.4.4,0,0,0-.4-.4H184.4a.4.4,0,0,0-.4.4v2.382a.4.4,0,0,0,.4.4h1.588a.4.4,0,0,0,.4-.4h.571l1.077,1.792a.394.394,0,0,0,.342.194v3.573Zm-3.573-5.955h-.794V80.794h.794Zm1.93-.2a.394.394,0,0,0-.342-.194h-.794v-.794h.963a1.2,1.2,0,0,1,1.186,1.057l.194,1.722H188.6Z" transform="translate(-175.668 -76.825)" fill="#252525" stroke="#252525" stroke-width="0.3"/>
    </g>
  </g>
</svg>
