<svg xmlns="http://www.w3.org/2000/svg" width="25.284" height="26.501" viewBox="0 0 25.284 26.501">
  <g id="noun-petrol-2482909" transform="translate(-9.255 -45.936)">
    <g id="Group_7995" data-name="Group 7995" transform="translate(10.232 46.96)">
      <g id="Group_7996" data-name="Group 7996">
        <path id="Path_13698" data-name="Path 13698" d="M66.685,46.96H81.677c3.149,0,3.328,4.9.034,4.942v6.835c1.7.014,3.26.223,3.26,2.374v3.016a1.439,1.439,0,1,0,2.874.139V60.433l-1.4-1.384V56.935l-2.352-2.352a.845.845,0,0,1,1.195-1.195l4.248,4.248v6.63c0,4-6.253,4.249-6.253-.139V61.112c0-.755-.958-.712-1.571-.691v7.708h5.747a.841.841,0,0,1,.841.841V72.62a.841.841,0,0,1-.841.841H65.6a.841.841,0,0,1-.841-.841V68.969a.841.841,0,0,1,.841-.841h1.051V51.9C63.357,51.858,63.536,46.96,66.685,46.96Zm12.166,7.587a.841.841,0,0,1-.841.841H70.431a.841.841,0,0,1-.841-.841ZM66.441,69.811v1.968H86.618V69.811ZM80.029,51.9h-11.7V68.128h11.7Zm1.648-3.26H66.685a.789.789,0,0,0,0,1.577H81.677A.789.789,0,0,0,81.677,48.643Z" transform="translate(-65.228 -47.984)" fill="#252525"/>
        <path id="Path_13702" data-name="Path 13702" d="M2.066-3.067H1.359a.169.169,0,0,1-.191-.191V-10.1a.169.169,0,0,1,.191-.191H4.032a1.743,1.743,0,0,1,1.28.455,1.727,1.727,0,0,1,.46,1.286v1.168a1.73,1.73,0,0,1-.46,1.28,1.73,1.73,0,0,1-1.28.46H2.392q-.135,0-.135.112v2.268A.169.169,0,0,1,2.066-3.067ZM2.381-6.6H3.874q.8,0,.8-.831V-8.5q0-.831-.8-.831H2.381q-.124,0-.124.112v2.5Q2.257-6.6,2.381-6.6Z" transform="translate(5.893 20.633)" fill="#252525" stroke="#252525" stroke-width="0.4"/>
      </g>
    </g>
  </g>
</svg>
