<svg xmlns="http://www.w3.org/2000/svg" width="25.284" height="26.501" viewBox="0 0 25.284 26.501">
  <g id="noun-petrol-2482909" transform="translate(-9.255 -45.936)">
    <g id="Group_7995" data-name="Group 7995" transform="translate(10.232 46.96)">
      <g id="Group_7996" data-name="Group 7996">
        <path id="Path_13698" data-name="Path 13698" d="M66.685,46.96H81.677c3.149,0,3.328,4.9.034,4.942v6.835c1.7.014,3.26.223,3.26,2.374v3.016a1.439,1.439,0,1,0,2.874.139V60.433l-1.4-1.384V56.935l-2.352-2.352a.845.845,0,0,1,1.195-1.195l4.248,4.248v6.63c0,4-6.253,4.249-6.253-.139V61.112c0-.755-.958-.712-1.571-.691v7.708h5.747a.841.841,0,0,1,.841.841V72.62a.841.841,0,0,1-.841.841H65.6a.841.841,0,0,1-.841-.841V68.969a.841.841,0,0,1,.841-.841h1.051V51.9C63.357,51.858,63.536,46.96,66.685,46.96Zm12.166,7.587a.841.841,0,0,1-.841.841H70.431a.841.841,0,0,1-.841-.841ZM66.441,69.811v1.968H86.618V69.811ZM80.029,51.9h-11.7V68.128h11.7Zm1.648-3.26H66.685a.789.789,0,0,0,0,1.577H81.677A.789.789,0,0,0,81.677,48.643Z" transform="translate(-65.228 -47.984)" fill="#252525"/>
        <path id="Path_13699" data-name="Path 13699" d="M2.441-4H4.1a.744.744,0,0,0,.848-.834V-8.5A.744.744,0,0,0,4.1-9.33H2.441q-.13,0-.13.113v5.1Q2.311-4,2.441-4Zm-1.273.767V-10.1q0-.192.2-.192h2.9a1.9,1.9,0,0,1,1.349.457A1.68,1.68,0,0,1,6.105-8.54v3.755A1.684,1.684,0,0,1,5.616-3.5a1.885,1.885,0,0,1-1.349.462h-2.9Q1.168-3.038,1.168-3.229Z" transform="translate(5.74 20.396)" fill="#252525" stroke="#252525" stroke-width="0.4"/>
      </g>
    </g>
  </g>
</svg>
